# xmcd CD database file
#
# Track frame offsets:
#	150
#	19923
#	33615
#	45924
#	57916
#	81600
#	95378
#	111866
#	126331
#	144782
#	156553
#	170517
#	186992
#	203880
#	220023
#	239327
#	253136
#	270113
#	284364
#	310999
#	332306
#	349287
#
# Disc length: 4787 seconds
#
# Revision: 1
# Processed by: cddbd v1.5.2PL0 Copyright (c) Steve Scherf et al.
# Submitted via: CDex 1.79
#
DISCID=4612b116
DTITLE=VARIOUS ARTIST 3 - TO DHMOTIKO TRAGOYDI EINAI EDW CD 3
DYEAR=1900
DGENRE=Country
TTITLE0=OLES OI NIES PANTREYONTAI
TTITLE1=NA 'XA NERATZI NA 'RIXNA
TTITLE2=KATW STO REMA
TTITLE3=POYLAKI XENO
TTITLE4=PANAGIOYLA - MIA KONTI KONTOYLA - STA RITSA BGENEI ENA NERO
TTITLE5=MANA STO PERIBOLI MAS
TTITLE6=SHKW DHMHTRW
TTITLE7=MARIA LEN THN PANAGIA
TTITLE8=O MENOYSHS
TTITLE9=O DERBENAGAS
TTITLE10=KOTA MOY KOTOYLA MOY
TTITLE11=GIOYRGIA
TTITLE12=EFTAIXA SYMPA8ISE ME - DIAMANTW POIOS SE FILISE
TTITLE13=APOPSE POY KOIMOMOYNA
TTITLE14=PARHGGEILA STO GAMO SOY
TTITLE15=ASPRH BAMBAKIA
TTITLE16=O HLIOS BASILEYEI
TTITLE17=KOYMPARA TOYTH TH BRADIA
TTITLE18=KWNSTANTINA - STOYS KAMPOYS ANASTENAXA - H STYLIANH
TTITLE19=TOY PANW KOSMOY TA KALA
TTITLE20=NA 'MOYNA NIOS NIOS KI ANYPANTROS- SAN DEN HXERES NA YFANEIS
TTITLE21=GEITONISSA
EXTD=
EXTT0=
EXTT1=
EXTT2=
EXTT3=
EXTT4=
EXTT5=
EXTT6=
EXTT7=
EXTT8=
EXTT9=
EXTT10=
EXTT11=
EXTT12=
EXTT13=
EXTT14=
EXTT15=
EXTT16=
EXTT17=
EXTT18=
EXTT19=
EXTT20=
EXTT21=
PLAYORDER=
